STARTFONT 2.1
COMMENT
COMMENT Converted from OpenType font "256 bytes.otf" by "otf2bdf 3.0".
COMMENT
FONT -FreeType-Two Fifty Six Bytes-Medium-R-Normal--14-100-100-100-P-57-ISO10646-1
SIZE 10 100 100
FONTBOUNDINGBOX 18 17 -2 -3
STARTPROPERTIES 19
FOUNDRY "FreeType"
FAMILY_NAME "Two Fifty Six Bytes"
WEIGHT_NAME "Medium"
SLANT "R"
SETWIDTH_NAME "Normal"
ADD_STYLE_NAME ""
PIXEL_SIZE 14
POINT_SIZE 100
RESOLUTION_X 100
RESOLUTION_Y 100
SPACING "P"
AVERAGE_WIDTH 57
CHARSET_REGISTRY "ISO10646"
CHARSET_ENCODING "1"
FONT_ASCENT 14
FONT_DESCENT 2
COPYRIGHT "(c) 1999-2011 Typodermic Fonts. See attached license agreement for more information. If license is missing, visit typodermicfonts.com"
_OTF_FONTFILE "256 bytes.otf"
_OTF_PSNAME "TwoFiftySixBytes-Regular"
ENDPROPERTIES
CHARS 397
STARTCHAR 0017
ENCODING 23
SWIDTH 216 0
DWIDTH 3 0
BBX 0 0 0 0
BITMAP
ENDCHAR
STARTCHAR 0020
ENCODING 32
SWIDTH 216 0
DWIDTH 3 0
BBX 0 0 0 0
BITMAP
ENDCHAR
STARTCHAR 0021
ENCODING 33
SWIDTH 288 0
DWIDTH 4 0
BBX 3 11 1 0
BITMAP
40
40
40
40
40
40
40
40
E0
E0
E0
ENDCHAR
STARTCHAR 0022
ENCODING 34
SWIDTH 432 0
DWIDTH 6 0
BBX 5 5 1 6
BITMAP
D8
D8
D8
D8
D8
ENDCHAR
STARTCHAR 0023
ENCODING 35
SWIDTH 576 0
DWIDTH 8 0
BBX 8 8 0 1
BITMAP
24
24
FF
24
24
FF
24
24
ENDCHAR
STARTCHAR 0024
ENCODING 36
SWIDTH 504 0
DWIDTH 7 0
BBX 5 8 1 2
BITMAP
F8
F8
80
F8
18
18
F8
20
ENDCHAR
STARTCHAR 0025
ENCODING 37
SWIDTH 720 0
DWIDTH 10 0
BBX 8 11 1 0
BITMAP
E2
E4
E4
E8
08
10
10
2F
2F
4F
4F
ENDCHAR
STARTCHAR 0026
ENCODING 38
SWIDTH 504 0
DWIDTH 7 0
BBX 5 11 1 0
BITMAP
E0
E0
E0
E0
80
90
90
F8
90
90
F8
ENDCHAR
STARTCHAR 0027
ENCODING 39
SWIDTH 216 0
DWIDTH 3 0
BBX 2 5 1 6
BITMAP
C0
C0
C0
C0
C0
ENDCHAR
STARTCHAR 0028
ENCODING 40
SWIDTH 288 0
DWIDTH 4 0
BBX 3 14 1 -2
BITMAP
20
40
40
C0
C0
80
80
80
80
C0
C0
40
40
20
ENDCHAR
STARTCHAR 0029
ENCODING 41
SWIDTH 288 0
DWIDTH 4 0
BBX 3 14 0 -2
BITMAP
C0
40
60
20
20
20
20
20
20
20
20
60
40
C0
ENDCHAR
STARTCHAR 002A
ENCODING 42
SWIDTH 432 0
DWIDTH 6 0
BBX 4 6 1 5
BITMAP
40
50
F0
E0
50
40
ENDCHAR
STARTCHAR 002B
ENCODING 43
SWIDTH 504 0
DWIDTH 7 0
BBX 5 6 1 2
BITMAP
20
20
F8
20
20
20
ENDCHAR
STARTCHAR 002C
ENCODING 44
SWIDTH 288 0
DWIDTH 4 0
BBX 4 4 0 -1
BITMAP
F0
70
30
30
ENDCHAR
STARTCHAR 002D
ENCODING 45
SWIDTH 360 0
DWIDTH 5 0
BBX 4 1 0 5
BITMAP
F0
ENDCHAR
STARTCHAR 002E
ENCODING 46
SWIDTH 288 0
DWIDTH 4 0
BBX 3 3 1 0
BITMAP
E0
E0
E0
ENDCHAR
STARTCHAR 002F
ENCODING 47
SWIDTH 360 0
DWIDTH 5 0
BBX 5 11 0 0
BITMAP
08
08
10
10
10
20
20
40
40
40
80
ENDCHAR
STARTCHAR 0030
ENCODING 48
SWIDTH 504 0
DWIDTH 7 0
BBX 5 11 1 0
BITMAP
F8
F8
F8
F8
88
88
88
F8
F8
F8
F8
ENDCHAR
STARTCHAR 0031
ENCODING 49
SWIDTH 216 0
DWIDTH 3 0
BBX 2 11 0 0
BITMAP
C0
40
40
40
40
40
40
40
40
40
40
ENDCHAR
STARTCHAR 0032
ENCODING 50
SWIDTH 504 0
DWIDTH 7 0
BBX 5 11 1 0
BITMAP
F8
98
98
18
18
F8
80
80
88
88
F8
ENDCHAR
STARTCHAR 0033
ENCODING 51
SWIDTH 504 0
DWIDTH 7 0
BBX 5 11 1 0
BITMAP
F8
F8
F8
F8
08
08
08
F0
08
08
F8
ENDCHAR
STARTCHAR 0034
ENCODING 52
SWIDTH 432 0
DWIDTH 6 0
BBX 6 11 0 0
BITMAP
80
80
80
88
FC
FC
FC
FC
08
08
08
ENDCHAR
STARTCHAR 0035
ENCODING 53
SWIDTH 504 0
DWIDTH 7 0
BBX 5 11 1 0
BITMAP
F8
C8
C8
C0
C0
F8
08
08
88
88
F8
ENDCHAR
STARTCHAR 0036
ENCODING 54
SWIDTH 504 0
DWIDTH 7 0
BBX 5 11 1 0
BITMAP
F8
C8
C8
C0
C0
F8
C8
C8
C8
C8
F8
ENDCHAR
STARTCHAR 0037
ENCODING 55
SWIDTH 432 0
DWIDTH 6 0
BBX 6 11 0 0
BITMAP
FC
F8
F8
F8
10
10
10
20
20
20
20
ENDCHAR
STARTCHAR 0038
ENCODING 56
SWIDTH 504 0
DWIDTH 7 0
BBX 5 11 1 0
BITMAP
F8
88
88
88
F8
88
88
F8
F8
F8
F8
ENDCHAR
STARTCHAR 0039
ENCODING 57
SWIDTH 504 0
DWIDTH 7 0
BBX 5 11 1 0
BITMAP
F8
F8
F8
F8
88
F8
08
08
88
88
F8
ENDCHAR
STARTCHAR 003A
ENCODING 58
SWIDTH 288 0
DWIDTH 4 0
BBX 3 8 1 0
BITMAP
E0
E0
E0
00
00
E0
E0
E0
ENDCHAR
STARTCHAR 003B
ENCODING 59
SWIDTH 288 0
DWIDTH 4 0
BBX 3 9 1 -1
BITMAP
E0
E0
E0
00
00
E0
E0
60
60
ENDCHAR
STARTCHAR 003C
ENCODING 60
SWIDTH 504 0
DWIDTH 7 0
BBX 5 6 1 2
BITMAP
08
30
C0
C0
30
08
ENDCHAR
STARTCHAR 003D
ENCODING 61
SWIDTH 504 0
DWIDTH 7 0
BBX 5 4 1 3
BITMAP
F8
00
00
F8
ENDCHAR
STARTCHAR 003E
ENCODING 62
SWIDTH 504 0
DWIDTH 7 0
BBX 5 6 1 2
BITMAP
80
60
18
18
60
80
ENDCHAR
STARTCHAR 003F
ENCODING 63
SWIDTH 432 0
DWIDTH 6 0
BBX 6 11 0 0
BITMAP
FC
9C
9C
1C
1C
3C
20
20
70
70
70
ENDCHAR
STARTCHAR 0040
ENCODING 64
SWIDTH 576 0
DWIDTH 8 0
BBX 7 10 1 -1
BITMAP
F8
88
BA
CA
CA
CA
FA
82
82
FE
ENDCHAR
STARTCHAR 0041
ENCODING 65
SWIDTH 504 0
DWIDTH 7 0
BBX 6 11 0 0
BITMAP
38
38
38
58
58
58
5C
7C
8C
8C
8C
ENDCHAR
STARTCHAR 0042
ENCODING 66
SWIDTH 504 0
DWIDTH 7 0
BBX 5 11 1 0
BITMAP
F8
88
88
88
F8
88
88
F8
F8
F8
F8
ENDCHAR
STARTCHAR 0043
ENCODING 67
SWIDTH 504 0
DWIDTH 7 0
BBX 5 11 1 0
BITMAP
F8
C8
C8
C0
C0
C0
C0
C0
C8
C8
F8
ENDCHAR
STARTCHAR 0044
ENCODING 68
SWIDTH 504 0
DWIDTH 7 0
BBX 5 11 1 0
BITMAP
F8
98
98
98
98
98
98
98
98
98
F8
ENDCHAR
STARTCHAR 0045
ENCODING 69
SWIDTH 432 0
DWIDTH 6 0
BBX 5 11 1 0
BITMAP
F8
C0
C0
F8
C0
C0
C0
F8
F8
F8
F8
ENDCHAR
STARTCHAR 0046
ENCODING 70
SWIDTH 432 0
DWIDTH 6 0
BBX 5 11 1 0
BITMAP
F8
F8
F8
F8
C0
C0
C0
F8
C0
C0
C0
ENDCHAR
STARTCHAR 0047
ENCODING 71
SWIDTH 504 0
DWIDTH 7 0
BBX 5 11 1 0
BITMAP
F8
88
88
88
80
B8
88
F8
F8
F8
F8
ENDCHAR
STARTCHAR 0048
ENCODING 72
SWIDTH 504 0
DWIDTH 7 0
BBX 5 11 1 0
BITMAP
C8
C8
C8
C8
C8
F8
C8
C8
C8
C8
C8
ENDCHAR
STARTCHAR 0049
ENCODING 73
SWIDTH 288 0
DWIDTH 4 0
BBX 2 11 1 0
BITMAP
C0
C0
C0
C0
C0
C0
C0
C0
C0
C0
C0
ENDCHAR
STARTCHAR 004A
ENCODING 74
SWIDTH 360 0
DWIDTH 5 0
BBX 4 11 0 0
BITMAP
10
10
10
10
10
10
10
F0
F0
F0
F0
ENDCHAR
STARTCHAR 004B
ENCODING 75
SWIDTH 504 0
DWIDTH 7 0
BBX 5 11 1 0
BITMAP
C8
C8
D0
D0
E0
F8
C8
C8
C8
C8
C8
ENDCHAR
STARTCHAR 004C
ENCODING 76
SWIDTH 360 0
DWIDTH 5 0
BBX 4 11 1 0
BITMAP
80
80
80
80
80
80
80
F0
F0
F0
F0
ENDCHAR
STARTCHAR 004D
ENCODING 77
SWIDTH 648 0
DWIDTH 9 0
BBX 7 11 1 0
BITMAP
FE
D6
D6
D6
D6
D6
D6
D6
D6
D6
D6
ENDCHAR
STARTCHAR 004E
ENCODING 78
SWIDTH 504 0
DWIDTH 7 0
BBX 5 11 1 0
BITMAP
F8
C8
C8
C8
C8
C8
C8
C8
C8
C8
C8
ENDCHAR
STARTCHAR 004F
ENCODING 79
SWIDTH 504 0
DWIDTH 7 0
BBX 5 11 1 0
BITMAP
F8
C8
C8
C8
C8
C8
C8
C8
C8
C8
F8
ENDCHAR
STARTCHAR 0050
ENCODING 80
SWIDTH 504 0
DWIDTH 7 0
BBX 5 11 1 0
BITMAP
F8
C8
C8
C8
C8
C8
F8
C0
C0
C0
C0
ENDCHAR
STARTCHAR 0051
ENCODING 81
SWIDTH 504 0
DWIDTH 7 0
BBX 5 12 1 -1
BITMAP
F8
C8
C8
C8
C8
C8
C8
C8
C8
C8
F8
10
ENDCHAR
STARTCHAR 0052
ENCODING 82
SWIDTH 504 0
DWIDTH 7 0
BBX 5 11 1 0
BITMAP
F8
C8
C8
C8
C8
F8
C8
C8
C8
C8
C8
ENDCHAR
STARTCHAR 0053
ENCODING 83
SWIDTH 504 0
DWIDTH 7 0
BBX 5 11 1 0
BITMAP
F8
88
88
80
80
F8
18
18
98
98
F8
ENDCHAR
STARTCHAR 0054
ENCODING 84
SWIDTH 432 0
DWIDTH 6 0
BBX 6 11 0 0
BITMAP
FC
FC
FC
FC
10
10
10
10
10
10
10
ENDCHAR
STARTCHAR 0055
ENCODING 85
SWIDTH 504 0
DWIDTH 7 0
BBX 5 11 1 0
BITMAP
C8
C8
C8
C8
C8
C8
C8
F8
F8
F8
F8
ENDCHAR
STARTCHAR 0056
ENCODING 86
SWIDTH 504 0
DWIDTH 7 0
BBX 6 11 0 0
BITMAP
E4
E4
64
64
64
68
78
38
38
38
30
ENDCHAR
STARTCHAR 0057
ENCODING 87
SWIDTH 648 0
DWIDTH 9 0
BBX 7 11 1 0
BITMAP
D6
D6
D6
D6
D6
D6
D6
D6
D6
D6
FE
ENDCHAR
STARTCHAR 0058
ENCODING 88
SWIDTH 504 0
DWIDTH 7 0
BBX 7 11 0 0
BITMAP
E4
64
78
38
30
18
38
3C
4C
4C
8E
ENDCHAR
STARTCHAR 0059
ENCODING 89
SWIDTH 504 0
DWIDTH 7 0
BBX 6 11 0 0
BITMAP
8C
8C
8C
8C
8C
8C
8C
FC
10
10
10
ENDCHAR
STARTCHAR 005A
ENCODING 90
SWIDTH 504 0
DWIDTH 7 0
BBX 7 11 0 0
BITMAP
FE
0C
0C
18
18
38
30
30
70
60
FE
ENDCHAR
STARTCHAR 005B
ENCODING 91
SWIDTH 288 0
DWIDTH 4 0
BBX 3 14 1 -2
BITMAP
E0
80
80
80
80
80
80
80
80
80
80
80
80
E0
ENDCHAR
STARTCHAR 005C
ENCODING 92
SWIDTH 360 0
DWIDTH 5 0
BBX 5 11 0 0
BITMAP
80
40
40
40
20
20
10
10
10
08
08
ENDCHAR
STARTCHAR 005D
ENCODING 93
SWIDTH 288 0
DWIDTH 4 0
BBX 3 14 0 -2
BITMAP
E0
20
20
20
20
20
20
20
20
20
20
20
20
E0
ENDCHAR
STARTCHAR 005E
ENCODING 94
SWIDTH 504 0
DWIDTH 7 0
BBX 7 6 0 5
BITMAP
10
38
28
44
44
82
ENDCHAR
STARTCHAR 005F
ENCODING 95
SWIDTH 432 0
DWIDTH 6 0
BBX 6 1 0 -1
BITMAP
FC
ENDCHAR
STARTCHAR 0060
ENCODING 96
SWIDTH 288 0
DWIDTH 4 0
BBX 2 3 1 8
BITMAP
80
C0
40
ENDCHAR
STARTCHAR 0061
ENCODING 97
SWIDTH 504 0
DWIDTH 7 0
BBX 7 8 0 0
BITMAP
38
38
38
58
5C
7C
8C
8E
ENDCHAR
STARTCHAR 0062
ENCODING 98
SWIDTH 504 0
DWIDTH 7 0
BBX 5 8 1 0
BITMAP
F8
88
88
F8
88
F8
F8
F8
ENDCHAR
STARTCHAR 0063
ENCODING 99
SWIDTH 504 0
DWIDTH 7 0
BBX 5 8 1 0
BITMAP
F8
C8
C8
C0
C0
C0
C8
F8
ENDCHAR
STARTCHAR 0064
ENCODING 100
SWIDTH 504 0
DWIDTH 7 0
BBX 5 8 1 0
BITMAP
F8
98
98
98
98
98
98
F8
ENDCHAR
STARTCHAR 0065
ENCODING 101
SWIDTH 432 0
DWIDTH 6 0
BBX 5 8 1 0
BITMAP
F8
C0
F8
C0
C0
F8
F8
F8
ENDCHAR
STARTCHAR 0066
ENCODING 102
SWIDTH 432 0
DWIDTH 6 0
BBX 5 8 1 0
BITMAP
F8
F8
F8
C0
C0
F8
C0
C0
ENDCHAR
STARTCHAR 0067
ENCODING 103
SWIDTH 504 0
DWIDTH 7 0
BBX 5 8 1 0
BITMAP
F8
88
80
B8
88
F8
F8
F8
ENDCHAR
STARTCHAR 0068
ENCODING 104
SWIDTH 504 0
DWIDTH 7 0
BBX 5 8 1 0
BITMAP
C8
C8
C8
F8
C8
C8
C8
C8
ENDCHAR
STARTCHAR 0069
ENCODING 105
SWIDTH 288 0
DWIDTH 4 0
BBX 2 8 1 0
BITMAP
C0
C0
C0
C0
C0
C0
C0
C0
ENDCHAR
STARTCHAR 006A
ENCODING 106
SWIDTH 360 0
DWIDTH 5 0
BBX 4 8 0 0
BITMAP
10
10
10
10
10
F0
F0
F0
ENDCHAR
STARTCHAR 006B
ENCODING 107
SWIDTH 504 0
DWIDTH 7 0
BBX 5 8 1 0
BITMAP
C8
C8
D0
F8
C8
C8
C8
C8
ENDCHAR
STARTCHAR 006C
ENCODING 108
SWIDTH 360 0
DWIDTH 5 0
BBX 4 8 1 0
BITMAP
80
80
80
80
80
F0
F0
F0
ENDCHAR
STARTCHAR 006D
ENCODING 109
SWIDTH 648 0
DWIDTH 9 0
BBX 7 8 1 0
BITMAP
FE
D6
D6
D6
D6
D6
D6
D6
ENDCHAR
STARTCHAR 006E
ENCODING 110
SWIDTH 504 0
DWIDTH 7 0
BBX 5 8 1 0
BITMAP
F8
C8
C8
C8
C8
C8
C8
C8
ENDCHAR
STARTCHAR 006F
ENCODING 111
SWIDTH 504 0
DWIDTH 7 0
BBX 5 8 1 0
BITMAP
F8
C8
C8
C8
C8
C8
C8
F8
ENDCHAR
STARTCHAR 0070
ENCODING 112
SWIDTH 504 0
DWIDTH 7 0
BBX 5 8 1 0
BITMAP
F8
C8
C8
C8
F8
C0
C0
C0
ENDCHAR
STARTCHAR 0071
ENCODING 113
SWIDTH 504 0
DWIDTH 7 0
BBX 5 9 1 -1
BITMAP
F8
C8
C8
C8
C8
C8
C8
F8
10
ENDCHAR
STARTCHAR 0072
ENCODING 114
SWIDTH 504 0
DWIDTH 7 0
BBX 5 8 1 0
BITMAP
F8
C8
C8
C8
F8
C8
C8
C8
ENDCHAR
STARTCHAR 0073
ENCODING 115
SWIDTH 504 0
DWIDTH 7 0
BBX 5 8 1 0
BITMAP
F8
88
80
F8
18
18
98
F8
ENDCHAR
STARTCHAR 0074
ENCODING 116
SWIDTH 432 0
DWIDTH 6 0
BBX 6 8 0 0
BITMAP
FC
FC
FC
10
10
10
10
10
ENDCHAR
STARTCHAR 0075
ENCODING 117
SWIDTH 504 0
DWIDTH 7 0
BBX 5 8 1 0
BITMAP
C8
C8
C8
C8
C8
F8
F8
F8
ENDCHAR
STARTCHAR 0076
ENCODING 118
SWIDTH 504 0
DWIDTH 7 0
BBX 7 8 0 0
BITMAP
E2
64
64
74
78
38
38
38
ENDCHAR
STARTCHAR 0077
ENCODING 119
SWIDTH 648 0
DWIDTH 9 0
BBX 7 8 1 0
BITMAP
D6
D6
D6
D6
D6
D6
D6
FE
ENDCHAR
STARTCHAR 0078
ENCODING 120
SWIDTH 576 0
DWIDTH 8 0
BBX 6 8 1 0
BITMAP
C4
E8
68
70
30
58
9C
8C
ENDCHAR
STARTCHAR 0079
ENCODING 121
SWIDTH 504 0
DWIDTH 7 0
BBX 6 8 0 0
BITMAP
8C
8C
8C
8C
8C
FC
10
10
ENDCHAR
STARTCHAR 007A
ENCODING 122
SWIDTH 504 0
DWIDTH 7 0
BBX 7 8 0 0
BITMAP
7E
0C
1C
18
38
30
70
FE
ENDCHAR
STARTCHAR 007B
ENCODING 123
SWIDTH 360 0
DWIDTH 5 0
BBX 4 14 1 -2
BITMAP
70
60
40
60
60
60
60
C0
60
60
60
60
40
70
ENDCHAR
STARTCHAR 007C
ENCODING 124
SWIDTH 288 0
DWIDTH 4 0
BBX 2 14 1 -2
BITMAP
C0
C0
C0
C0
C0
C0
C0
C0
C0
C0
C0
C0
C0
C0
ENDCHAR
STARTCHAR 007D
ENCODING 125
SWIDTH 360 0
DWIDTH 5 0
BBX 4 14 0 -2
BITMAP
E0
20
20
20
60
60
60
30
60
60
60
20
20
E0
ENDCHAR
STARTCHAR 007E
ENCODING 126
SWIDTH 504 0
DWIDTH 7 0
BBX 5 2 1 4
BITMAP
E8
B8
ENDCHAR
STARTCHAR 00A0
ENCODING 160
SWIDTH 216 0
DWIDTH 3 0
BBX 0 0 0 0
BITMAP
ENDCHAR
STARTCHAR 00A1
ENCODING 161
SWIDTH 288 0
DWIDTH 4 0
BBX 3 10 1 -1
BITMAP
E0
E0
E0
40
40
40
40
40
40
40
ENDCHAR
STARTCHAR 00A2
ENCODING 162
SWIDTH 504 0
DWIDTH 7 0
BBX 5 8 1 1
BITMAP
20
F8
C8
C0
C0
C8
F8
20
ENDCHAR
STARTCHAR 00A3
ENCODING 163
SWIDTH 504 0
DWIDTH 7 0
BBX 6 11 0 0
BITMAP
7C
64
64
60
FC
60
60
FC
FC
FC
FC
ENDCHAR
STARTCHAR 00A4
ENCODING 164
SWIDTH 504 0
DWIDTH 7 0
BBX 6 7 1 1
BITMAP
8C
F8
C8
88
C8
F8
8C
ENDCHAR
STARTCHAR 00A5
ENCODING 165
SWIDTH 576 0
DWIDTH 8 0
BBX 8 11 0 0
BITMAP
63
72
72
34
3C
3C
FE
18
FE
18
18
ENDCHAR
STARTCHAR 00A6
ENCODING 166
SWIDTH 288 0
DWIDTH 4 0
BBX 2 14 1 -2
BITMAP
C0
C0
C0
C0
C0
00
00
00
00
C0
C0
C0
C0
C0
ENDCHAR
STARTCHAR 00A7
ENCODING 167
SWIDTH 504 0
DWIDTH 7 0
BBX 5 12 1 -1
BITMAP
F8
98
80
E0
F8
88
88
F8
18
88
98
F8
ENDCHAR
STARTCHAR 00A8
ENCODING 168
SWIDTH 360 0
DWIDTH 5 0
BBX 4 2 1 8
BITMAP
B0
B0
ENDCHAR
STARTCHAR 00A9
ENCODING 169
SWIDTH 720 0
DWIDTH 10 0
BBX 8 11 1 0
BITMAP
7E
81
81
B9
AD
A1
AD
B9
81
81
7E
ENDCHAR
STARTCHAR 00AA
ENCODING 170
SWIDTH 288 0
DWIDTH 4 0
BBX 4 4 0 5
BITMAP
60
60
60
B0
ENDCHAR
STARTCHAR 00AB
ENCODING 171
SWIDTH 576 0
DWIDTH 8 0
BBX 7 4 1 3
BITMAP
66
CC
CC
66
ENDCHAR
STARTCHAR 00AC
ENCODING 172
SWIDTH 504 0
DWIDTH 7 0
BBX 6 7 1 0
BITMAP
F8
FC
0C
0C
0C
0C
0C
ENDCHAR
STARTCHAR 00AE
ENCODING 174
SWIDTH 720 0
DWIDTH 10 0
BBX 8 11 1 0
BITMAP
7E
81
81
BD
AD
B9
AD
AD
81
81
7E
ENDCHAR
STARTCHAR 00AF
ENCODING 175
SWIDTH 360 0
DWIDTH 5 0
BBX 4 1 1 9
BITMAP
F0
ENDCHAR
STARTCHAR 00B0
ENCODING 176
SWIDTH 360 0
DWIDTH 5 0
BBX 3 4 1 7
BITMAP
E0
A0
A0
E0
ENDCHAR
STARTCHAR 00B1
ENCODING 177
SWIDTH 504 0
DWIDTH 7 0
BBX 5 8 1 0
BITMAP
20
20
F8
20
20
20
00
F8
ENDCHAR
STARTCHAR 00B2
ENCODING 178
SWIDTH 288 0
DWIDTH 4 0
BBX 4 6 0 5
BITMAP
F0
B0
30
F0
90
F0
ENDCHAR
STARTCHAR 00B3
ENCODING 179
SWIDTH 288 0
DWIDTH 4 0
BBX 3 6 0 5
BITMAP
E0
E0
20
E0
20
E0
ENDCHAR
STARTCHAR 00B4
ENCODING 180
SWIDTH 288 0
DWIDTH 4 0
BBX 2 3 1 8
BITMAP
C0
C0
80
ENDCHAR
STARTCHAR 00B6
ENCODING 182
SWIDTH 504 0
DWIDTH 7 0
BBX 6 12 0 -1
BITMAP
FC
E4
E4
E4
64
24
24
24
24
24
24
24
ENDCHAR
STARTCHAR 00B7
ENCODING 183
SWIDTH 288 0
DWIDTH 4 0
BBX 3 3 1 4
BITMAP
E0
E0
E0
ENDCHAR
STARTCHAR 00B8
ENCODING 184
SWIDTH 216 0
DWIDTH 3 0
BBX 3 3 0 -3
BITMAP
60
E0
20
ENDCHAR
STARTCHAR 00B9
ENCODING 185
SWIDTH 144 0
DWIDTH 2 0
BBX 1 6 0 5
BITMAP
80
80
80
80
80
80
ENDCHAR
STARTCHAR 00BA
ENCODING 186
SWIDTH 288 0
DWIDTH 4 0
BBX 4 5 0 5
BITMAP
70
D0
D0
D0
F0
ENDCHAR
STARTCHAR 00BB
ENCODING 187
SWIDTH 576 0
DWIDTH 8 0
BBX 7 4 0 3
BITMAP
CC
66
66
CC
ENDCHAR
STARTCHAR 00BC
ENCODING 188
SWIDTH 720 0
DWIDTH 10 0
BBX 8 11 1 0
BITMAP
82
84
88
88
90
98
28
27
47
82
82
ENDCHAR
STARTCHAR 00BD
ENCODING 189
SWIDTH 720 0
DWIDTH 10 0
BBX 8 11 1 0
BITMAP
82
84
88
88
90
97
25
21
47
84
87
ENDCHAR
STARTCHAR 00BE
ENCODING 190
SWIDTH 792 0
DWIDTH 11 0
BBX 9 11 1 0
BITMAP
E100
E200
2200
E400
2800
EA00
1200
1380
2380
2100
4100
ENDCHAR
STARTCHAR 00BF
ENCODING 191
SWIDTH 432 0
DWIDTH 6 0
BBX 6 10 0 -1
BITMAP
38
38
38
10
F0
E0
E0
E4
E4
FC
ENDCHAR
STARTCHAR 00C0
ENCODING 192
SWIDTH 504 0
DWIDTH 7 0
BBX 6 14 0 0
BITMAP
20
30
10
38
38
38
58
58
58
5C
7C
8C
8C
8C
ENDCHAR
STARTCHAR 00C1
ENCODING 193
SWIDTH 504 0
DWIDTH 7 0
BBX 6 14 0 0
BITMAP
18
18
10
38
38
38
58
58
58
5C
7C
8C
8C
8C
ENDCHAR
STARTCHAR 00C2
ENCODING 194
SWIDTH 504 0
DWIDTH 7 0
BBX 6 14 0 0
BITMAP
30
28
48
38
38
38
58
58
58
5C
7C
8C
8C
8C
ENDCHAR
STARTCHAR 00C3
ENCODING 195
SWIDTH 504 0
DWIDTH 7 0
BBX 6 13 0 0
BITMAP
70
58
38
38
38
58
58
58
5C
7C
8C
8C
8C
ENDCHAR
STARTCHAR 00C4
ENCODING 196
SWIDTH 504 0
DWIDTH 7 0
BBX 6 14 0 0
BITMAP
68
68
00
38
38
38
58
58
58
5C
7C
8C
8C
8C
ENDCHAR
STARTCHAR 00C5
ENCODING 197
SWIDTH 504 0
DWIDTH 7 0
BBX 6 14 0 0
BITMAP
38
28
38
38
38
38
58
58
58
5C
7C
8C
8C
8C
ENDCHAR
STARTCHAR 00C6
ENCODING 198
SWIDTH 648 0
DWIDTH 9 0
BBX 9 11 0 0
BITMAP
3F80
3800
3800
5F80
5800
5800
5800
7F80
9F80
9F80
9F80
ENDCHAR
STARTCHAR 00C7
ENCODING 199
SWIDTH 504 0
DWIDTH 7 0
BBX 5 14 1 -3
BITMAP
F8
C8
C8
C0
C0
C0
C0
C0
C8
C8
F8
70
70
10
ENDCHAR
STARTCHAR 00C8
ENCODING 200
SWIDTH 432 0
DWIDTH 6 0
BBX 5 14 1 0
BITMAP
40
60
20
F8
C0
C0
F8
C0
C0
C0
F8
F8
F8
F8
ENDCHAR
STARTCHAR 00C9
ENCODING 201
SWIDTH 432 0
DWIDTH 6 0
BBX 5 14 1 0
BITMAP
10
30
20
F8
C0
C0
F8
C0
C0
C0
F8
F8
F8
F8
ENDCHAR
STARTCHAR 00CA
ENCODING 202
SWIDTH 432 0
DWIDTH 6 0
BBX 5 14 1 0
BITMAP
60
50
D8
F8
C0
C0
F8
C0
C0
C0
F8
F8
F8
F8
ENDCHAR
STARTCHAR 00CB
ENCODING 203
SWIDTH 432 0
DWIDTH 6 0
BBX 5 14 1 0
BITMAP
D0
D8
00
F8
C0
C0
F8
C0
C0
C0
F8
F8
F8
F8
ENDCHAR
STARTCHAR 00CC
ENCODING 204
SWIDTH 288 0
DWIDTH 4 0
BBX 3 14 0 0
BITMAP
C0
40
60
60
60
60
60
60
60
60
60
60
60
60
ENDCHAR
STARTCHAR 00CD
ENCODING 205
SWIDTH 288 0
DWIDTH 4 0
BBX 3 14 1 0
BITMAP
60
40
C0
C0
C0
C0
C0
C0
C0
C0
C0
C0
C0
C0
ENDCHAR
STARTCHAR 00CE
ENCODING 206
SWIDTH 288 0
DWIDTH 4 0
BBX 4 14 0 0
BITMAP
60
E0
90
60
60
60
60
60
60
60
60
60
60
60
ENDCHAR
STARTCHAR 00CF
ENCODING 207
SWIDTH 288 0
DWIDTH 4 0
BBX 4 14 0 0
BITMAP
B0
F0
00
60
60
60
60
60
60
60
60
60
60
60
ENDCHAR
STARTCHAR 00D0
ENCODING 208
SWIDTH 504 0
DWIDTH 7 0
BBX 6 11 0 0
BITMAP
7C
4C
4C
EC
4C
4C
4C
4C
4C
4C
7C
ENDCHAR
STARTCHAR 00D1
ENCODING 209
SWIDTH 504 0
DWIDTH 7 0
BBX 5 13 1 0
BITMAP
E0
B0
F8
C8
C8
C8
C8
C8
C8
C8
C8
C8
C8
ENDCHAR
STARTCHAR 00D2
ENCODING 210
SWIDTH 504 0
DWIDTH 7 0
BBX 5 14 1 0
BITMAP
40
60
20
F8
C8
C8
C8
C8
C8
C8
C8
C8
C8
F8
ENDCHAR
STARTCHAR 00D3
ENCODING 211
SWIDTH 504 0
DWIDTH 7 0
BBX 5 14 1 0
BITMAP
10
30
20
F8
C8
C8
C8
C8
C8
C8
C8
C8
C8
F8
ENDCHAR
STARTCHAR 00D4
ENCODING 212
SWIDTH 504 0
DWIDTH 7 0
BBX 5 14 1 0
BITMAP
60
50
D8
F8
C8
C8
C8
C8
C8
C8
C8
C8
C8
F8
ENDCHAR
STARTCHAR 00D5
ENCODING 213
SWIDTH 504 0
DWIDTH 7 0
BBX 5 13 1 0
BITMAP
E0
B0
F8
C8
C8
C8
C8
C8
C8
C8
C8
C8
F8
ENDCHAR
STARTCHAR 00D6
ENCODING 214
SWIDTH 504 0
DWIDTH 7 0
BBX 5 14 1 0
BITMAP
D0
D8
00
F8
C8
C8
C8
C8
C8
C8
C8
C8
C8
F8
ENDCHAR
STARTCHAR 00D7
ENCODING 215
SWIDTH 504 0
DWIDTH 7 0
BBX 5 5 1 3
BITMAP
88
50
20
50
88
ENDCHAR
STARTCHAR 00D8
ENCODING 216
SWIDTH 504 0
DWIDTH 7 0
BBX 5 13 1 -1
BITMAP
08
F8
D8
D8
D8
E8
E8
E8
C8
C8
C8
F8
80
ENDCHAR
STARTCHAR 00D9
ENCODING 217
SWIDTH 504 0
DWIDTH 7 0
BBX 5 14 1 0
BITMAP
60
20
20
C8
C8
C8
C8
C8
C8
C8
F8
F8
F8
F8
ENDCHAR
STARTCHAR 00DA
ENCODING 218
SWIDTH 504 0
DWIDTH 7 0
BBX 5 14 1 0
BITMAP
18
10
20
C8
C8
C8
C8
C8
C8
C8
F8
F8
F8
F8
ENDCHAR
STARTCHAR 00DB
ENCODING 219
SWIDTH 504 0
DWIDTH 7 0
BBX 5 14 1 0
BITMAP
30
70
48
C8
C8
C8
C8
C8
C8
C8
F8
F8
F8
F8
ENDCHAR
STARTCHAR 00DC
ENCODING 220
SWIDTH 504 0
DWIDTH 7 0
BBX 5 14 1 0
BITMAP
58
58
00
C8
C8
C8
C8
C8
C8
C8
F8
F8
F8
F8
ENDCHAR
STARTCHAR 00DD
ENCODING 221
SWIDTH 504 0
DWIDTH 7 0
BBX 6 14 0 0
BITMAP
18
10
10
8C
8C
8C
8C
8C
8C
8C
FC
10
10
10
ENDCHAR
STARTCHAR 00DE
ENCODING 222
SWIDTH 504 0
DWIDTH 7 0
BBX 5 11 1 0
BITMAP
C0
C0
F8
C8
C8
C8
C8
C8
F8
C0
C0
ENDCHAR
STARTCHAR 00DF
ENCODING 223
SWIDTH 1008 0
DWIDTH 14 0
BBX 12 8 1 0
BITMAP
FBF0
8A10
8200
FBF0
1830
1A30
9A30
FBF0
ENDCHAR
STARTCHAR 00E0
ENCODING 224
SWIDTH 504 0
DWIDTH 7 0
BBX 7 11 0 0
BITMAP
20
30
10
38
38
38
58
5C
7C
8C
8E
ENDCHAR
STARTCHAR 00E1
ENCODING 225
SWIDTH 504 0
DWIDTH 7 0
BBX 7 11 0 0
BITMAP
08
18
10
38
38
38
58
5C
7C
8C
8E
ENDCHAR
STARTCHAR 00E2
ENCODING 226
SWIDTH 504 0
DWIDTH 7 0
BBX 7 11 0 0
BITMAP
30
28
6C
38
38
38
58
5C
7C
8C
8E
ENDCHAR
STARTCHAR 00E3
ENCODING 227
SWIDTH 504 0
DWIDTH 7 0
BBX 7 10 0 0
BITMAP
78
40
38
38
38
58
5C
7C
8C
8E
ENDCHAR
STARTCHAR 00E4
ENCODING 228
SWIDTH 504 0
DWIDTH 7 0
BBX 7 11 0 0
BITMAP
68
6C
00
38
38
38
58
5C
7C
8C
8E
ENDCHAR
STARTCHAR 00E5
ENCODING 229
SWIDTH 504 0
DWIDTH 7 0
BBX 7 11 0 0
BITMAP
38
28
38
38
38
38
58
5C
7C
8C
8E
ENDCHAR
STARTCHAR 00E6
ENCODING 230
SWIDTH 648 0
DWIDTH 9 0
BBX 9 8 0 0
BITMAP
3F80
3C00
3F80
5C00
5C00
7F80
8F80
8F80
ENDCHAR
STARTCHAR 00E7
ENCODING 231
SWIDTH 504 0
DWIDTH 7 0
BBX 5 11 1 -3
BITMAP
F8
C8
C8
C0
C0
C0
C8
F8
70
70
10
ENDCHAR
STARTCHAR 00E8
ENCODING 232
SWIDTH 432 0
DWIDTH 6 0
BBX 5 11 1 0
BITMAP
40
60
20
F8
C0
F8
C0
C0
F8
F8
F8
ENDCHAR
STARTCHAR 00E9
ENCODING 233
SWIDTH 432 0
DWIDTH 6 0
BBX 5 11 1 0
BITMAP
10
30
20
F8
C0
F8
C0
C0
F8
F8
F8
ENDCHAR
STARTCHAR 00EA
ENCODING 234
SWIDTH 432 0
DWIDTH 6 0
BBX 5 11 1 0
BITMAP
60
50
D8
F8
C0
F8
C0
C0
F8
F8
F8
ENDCHAR
STARTCHAR 00EB
ENCODING 235
SWIDTH 432 0
DWIDTH 6 0
BBX 5 11 1 0
BITMAP
D0
D8
00
F8
C0
F8
C0
C0
F8
F8
F8
ENDCHAR
STARTCHAR 00EC
ENCODING 236
SWIDTH 288 0
DWIDTH 4 0
BBX 3 11 0 0
BITMAP
C0
40
60
60
60
60
60
60
60
60
60
ENDCHAR
STARTCHAR 00ED
ENCODING 237
SWIDTH 288 0
DWIDTH 4 0
BBX 3 11 1 0
BITMAP
60
40
C0
C0
C0
C0
C0
C0
C0
C0
C0
ENDCHAR
STARTCHAR 00EE
ENCODING 238
SWIDTH 360 0
DWIDTH 5 0
BBX 4 11 0 0
BITMAP
60
70
90
70
70
70
70
70
70
70
70
ENDCHAR
STARTCHAR 00EF
ENCODING 239
SWIDTH 288 0
DWIDTH 4 0
BBX 4 11 0 0
BITMAP
F0
F0
00
60
60
60
60
60
60
60
60
ENDCHAR
STARTCHAR 00F0
ENCODING 240
SWIDTH 504 0
DWIDTH 7 0
BBX 7 8 0 0
BITMAP
7E
4E
EE
4E
4E
4E
4E
7E
ENDCHAR
STARTCHAR 00F1
ENCODING 241
SWIDTH 504 0
DWIDTH 7 0
BBX 5 10 1 0
BITMAP
F0
80
F8
C8
C8
C8
C8
C8
C8
C8
ENDCHAR
STARTCHAR 00F2
ENCODING 242
SWIDTH 504 0
DWIDTH 7 0
BBX 5 11 1 0
BITMAP
40
60
20
F8
C8
C8
C8
C8
C8
C8
F8
ENDCHAR
STARTCHAR 00F3
ENCODING 243
SWIDTH 504 0
DWIDTH 7 0
BBX 5 11 1 0
BITMAP
10
30
20
F8
C8
C8
C8
C8
C8
C8
F8
ENDCHAR
STARTCHAR 00F4
ENCODING 244
SWIDTH 504 0
DWIDTH 7 0
BBX 5 11 1 0
BITMAP
60
50
D8
F8
C8
C8
C8
C8
C8
C8
F8
ENDCHAR
STARTCHAR 00F5
ENCODING 245
SWIDTH 504 0
DWIDTH 7 0
BBX 5 10 1 0
BITMAP
F0
80
F8
C8
C8
C8
C8
C8
C8
F8
ENDCHAR
STARTCHAR 00F6
ENCODING 246
SWIDTH 504 0
DWIDTH 7 0
BBX 5 11 1 0
BITMAP
D0
D8
00
F8
C8
C8
C8
C8
C8
C8
F8
ENDCHAR
STARTCHAR 00F7
ENCODING 247
SWIDTH 504 0
DWIDTH 7 0
BBX 5 10 1 0
BITMAP
70
70
70
00
F8
00
00
70
70
70
ENDCHAR
STARTCHAR 00F8
ENCODING 248
SWIDTH 504 0
DWIDTH 7 0
BBX 5 10 1 -1
BITMAP
08
F8
D8
D8
E8
E8
C8
C8
F8
80
ENDCHAR
STARTCHAR 00F9
ENCODING 249
SWIDTH 504 0
DWIDTH 7 0
BBX 5 11 1 0
BITMAP
60
20
20
C8
C8
C8
C8
C8
F8
F8
F8
ENDCHAR
STARTCHAR 00FA
ENCODING 250
SWIDTH 504 0
DWIDTH 7 0
BBX 5 11 1 0
BITMAP
18
10
20
C8
C8
C8
C8
C8
F8
F8
F8
ENDCHAR
STARTCHAR 00FB
ENCODING 251
SWIDTH 504 0
DWIDTH 7 0
BBX 5 11 1 0
BITMAP
30
70
48
C8
C8
C8
C8
C8
F8
F8
F8
ENDCHAR
STARTCHAR 00FC
ENCODING 252
SWIDTH 504 0
DWIDTH 7 0
BBX 5 11 1 0
BITMAP
58
58
00
C8
C8
C8
C8
C8
F8
F8
F8
ENDCHAR
STARTCHAR 00FD
ENCODING 253
SWIDTH 504 0
DWIDTH 7 0
BBX 6 11 0 0
BITMAP
18
10
10
8C
8C
8C
8C
8C
FC
10
10
ENDCHAR
STARTCHAR 00FE
ENCODING 254
SWIDTH 504 0
DWIDTH 7 0
BBX 5 8 1 0
BITMAP
C0
C0
F8
C8
C8
F8
C0
C0
ENDCHAR
STARTCHAR 00FF
ENCODING 255
SWIDTH 504 0
DWIDTH 7 0
BBX 6 11 0 0
BITMAP
68
68
00
8C
8C
8C
8C
8C
FC
10
10
ENDCHAR
STARTCHAR 0100
ENCODING 256
SWIDTH 504 0
DWIDTH 7 0
BBX 6 13 0 0
BITMAP
78
00
38
38
38
58
58
58
5C
7C
8C
8C
8C
ENDCHAR
STARTCHAR 0101
ENCODING 257
SWIDTH 504 0
DWIDTH 7 0
BBX 7 10 0 0
BITMAP
78
00
38
38
38
58
5C
7C
8C
8E
ENDCHAR
STARTCHAR 0102
ENCODING 258
SWIDTH 504 0
DWIDTH 7 0
BBX 6 14 0 0
BITMAP
48
28
10
38
38
38
58
58
58
5C
7C
8C
8C
8C
ENDCHAR
STARTCHAR 0103
ENCODING 259
SWIDTH 504 0
DWIDTH 7 0
BBX 7 11 0 0
BITMAP
68
28
10
38
38
38
58
5C
7C
8C
8E
ENDCHAR
STARTCHAR 0104
ENCODING 260
SWIDTH 504 0
DWIDTH 7 0
BBX 6 13 0 -2
BITMAP
38
38
38
58
58
58
5C
7C
8C
8C
8C
08
0C
ENDCHAR
STARTCHAR 0105
ENCODING 261
SWIDTH 504 0
DWIDTH 7 0
BBX 7 10 0 -2
BITMAP
38
38
38
58
5C
7C
8C
8E
0C
0E
ENDCHAR
STARTCHAR 0106
ENCODING 262
SWIDTH 504 0
DWIDTH 7 0
BBX 5 14 1 0
BITMAP
10
30
20
F8
C8
C8
C0
C0
C0
C0
C0
C8
C8
F8
ENDCHAR
STARTCHAR 0107
ENCODING 263
SWIDTH 504 0
DWIDTH 7 0
BBX 5 11 1 0
BITMAP
10
30
20
F8
C8
C8
C0
C0
C0
C8
F8
ENDCHAR
STARTCHAR 0108
ENCODING 264
SWIDTH 504 0
DWIDTH 7 0
BBX 5 14 1 0
BITMAP
30
50
D8
F8
C8
C8
C0
C0
C0
C0
C0
C8
C8
F8
ENDCHAR
STARTCHAR 0109
ENCODING 265
SWIDTH 504 0
DWIDTH 7 0
BBX 5 11 1 0
BITMAP
30
50
D8
F8
C8
C8
C0
C0
C0
C8
F8
ENDCHAR
STARTCHAR 010A
ENCODING 266
SWIDTH 504 0
DWIDTH 7 0
BBX 5 14 1 0
BITMAP
20
20
00
F8
C8
C8
C0
C0
C0
C0
C0
C8
C8
F8
ENDCHAR
STARTCHAR 010B
ENCODING 267
SWIDTH 504 0
DWIDTH 7 0
BBX 5 11 1 0
BITMAP
20
20
00
F8
C8
C8
C0
C0
C0
C8
F8
ENDCHAR
STARTCHAR 010C
ENCODING 268
SWIDTH 504 0
DWIDTH 7 0
BBX 5 14 1 0
BITMAP
D8
50
30
F8
C8
C8
C0
C0
C0
C0
C0
C8
C8
F8
ENDCHAR
STARTCHAR 010D
ENCODING 269
SWIDTH 504 0
DWIDTH 7 0
BBX 5 11 1 0
BITMAP
D8
50
30
F8
C8
C8
C0
C0
C0
C8
F8
ENDCHAR
STARTCHAR 010E
ENCODING 270
SWIDTH 504 0
DWIDTH 7 0
BBX 5 14 1 0
BITMAP
D8
50
60
F8
98
98
98
98
98
98
98
98
98
F8
ENDCHAR
STARTCHAR 010F
ENCODING 271
SWIDTH 504 0
DWIDTH 7 0
BBX 5 11 1 0
BITMAP
D8
50
60
F8
98
98
98
98
98
98
F8
ENDCHAR
STARTCHAR 0110
ENCODING 272
SWIDTH 504 0
DWIDTH 7 0
BBX 6 11 0 0
BITMAP
7C
4C
4C
EC
4C
4C
4C
4C
4C
4C
7C
ENDCHAR
STARTCHAR 0111
ENCODING 273
SWIDTH 504 0
DWIDTH 7 0
BBX 7 8 0 0
BITMAP
7E
4E
EE
4E
4E
4E
4E
7E
ENDCHAR
STARTCHAR 0112
ENCODING 274
SWIDTH 432 0
DWIDTH 6 0
BBX 5 13 1 0
BITMAP
F0
00
F8
C0
C0
F8
C0
C0
C0
F8
F8
F8
F8
ENDCHAR
STARTCHAR 0113
ENCODING 275
SWIDTH 432 0
DWIDTH 6 0
BBX 5 10 1 0
BITMAP
F0
00
F8
C0
F8
C0
C0
F8
F8
F8
ENDCHAR
STARTCHAR 0114
ENCODING 276
SWIDTH 432 0
DWIDTH 6 0
BBX 5 14 1 0
BITMAP
D0
50
20
F8
C0
C0
F8
C0
C0
C0
F8
F8
F8
F8
ENDCHAR
STARTCHAR 0115
ENCODING 277
SWIDTH 432 0
DWIDTH 6 0
BBX 5 11 1 0
BITMAP
D0
50
20
F8
C0
F8
C0
C0
F8
F8
F8
ENDCHAR
STARTCHAR 0116
ENCODING 278
SWIDTH 432 0
DWIDTH 6 0
BBX 5 14 1 0
BITMAP
20
60
00
F8
C0
C0
F8
C0
C0
C0
F8
F8
F8
F8
ENDCHAR
STARTCHAR 0117
ENCODING 279
SWIDTH 432 0
DWIDTH 6 0
BBX 5 11 1 0
BITMAP
20
20
00
F8
C0
F8
C0
C0
F8
F8
F8
ENDCHAR
STARTCHAR 0118
ENCODING 280
SWIDTH 432 0
DWIDTH 6 0
BBX 5 13 1 -2
BITMAP
F8
C0
C0
F8
C0
C0
C0
F8
F8
F8
F8
10
38
ENDCHAR
STARTCHAR 0119
ENCODING 281
SWIDTH 432 0
DWIDTH 6 0
BBX 5 10 1 -2
BITMAP
F8
C0
F8
C0
C0
F8
F8
F8
10
38
ENDCHAR
STARTCHAR 011A
ENCODING 282
SWIDTH 432 0
DWIDTH 6 0
BBX 5 14 1 0
BITMAP
D8
50
60
F8
C0
C0
F8
C0
C0
C0
F8
F8
F8
F8
ENDCHAR
STARTCHAR 011B
ENCODING 283
SWIDTH 432 0
DWIDTH 6 0
BBX 5 11 1 0
BITMAP
D8
50
60
F8
C0
F8
C0
C0
F8
F8
F8
ENDCHAR
STARTCHAR 011C
ENCODING 284
SWIDTH 504 0
DWIDTH 7 0
BBX 5 14 1 0
BITMAP
60
50
D8
F8
88
88
88
80
B8
88
F8
F8
F8
F8
ENDCHAR
STARTCHAR 011D
ENCODING 285
SWIDTH 504 0
DWIDTH 7 0
BBX 5 11 1 0
BITMAP
60
50
D8
F8
88
80
B8
88
F8
F8
F8
ENDCHAR
STARTCHAR 011E
ENCODING 286
SWIDTH 504 0
DWIDTH 7 0
BBX 5 14 1 0
BITMAP
D0
50
20
F8
88
88
88
80
B8
88
F8
F8
F8
F8
ENDCHAR
STARTCHAR 011F
ENCODING 287
SWIDTH 504 0
DWIDTH 7 0
BBX 5 11 1 0
BITMAP
D0
50
20
F8
88
80
B8
88
F8
F8
F8
ENDCHAR
STARTCHAR 0120
ENCODING 288
SWIDTH 504 0
DWIDTH 7 0
BBX 5 14 1 0
BITMAP
20
20
00
F8
88
88
88
80
B8
88
F8
F8
F8
F8
ENDCHAR
STARTCHAR 0121
ENCODING 289
SWIDTH 504 0
DWIDTH 7 0
BBX 5 11 1 0
BITMAP
20
20
00
F8
88
80
B8
88
F8
F8
F8
ENDCHAR
STARTCHAR 0122
ENCODING 290
SWIDTH 504 0
DWIDTH 7 0
BBX 5 14 1 -3
BITMAP
F8
88
88
88
80
B8
88
F8
F8
F8
F8
60
70
30
ENDCHAR
STARTCHAR 0123
ENCODING 291
SWIDTH 504 0
DWIDTH 7 0
BBX 5 11 1 -3
BITMAP
F8
88
80
B8
88
F8
F8
F8
70
70
30
ENDCHAR
STARTCHAR 0124
ENCODING 292
SWIDTH 504 0
DWIDTH 7 0
BBX 5 14 1 0
BITMAP
60
50
D8
C8
C8
C8
C8
C8
F8
C8
C8
C8
C8
C8
ENDCHAR
STARTCHAR 0125
ENCODING 293
SWIDTH 504 0
DWIDTH 7 0
BBX 5 11 1 0
BITMAP
60
50
D8
C8
C8
C8
F8
C8
C8
C8
C8
ENDCHAR
STARTCHAR 0126
ENCODING 294
SWIDTH 504 0
DWIDTH 7 0
BBX 7 11 0 0
BITMAP
64
64
FE
64
64
7C
64
64
64
64
64
ENDCHAR
STARTCHAR 0127
ENCODING 295
SWIDTH 504 0
DWIDTH 7 0
BBX 7 8 0 0
BITMAP
64
FE
64
7C
64
64
64
64
ENDCHAR
STARTCHAR 0128
ENCODING 296
SWIDTH 288 0
DWIDTH 4 0
BBX 4 13 0 0
BITMAP
F0
30
60
60
60
60
60
60
60
60
60
60
60
ENDCHAR
STARTCHAR 0129
ENCODING 297
SWIDTH 288 0
DWIDTH 4 0
BBX 4 10 0 0
BITMAP
F0
00
60
60
60
60
60
60
60
60
ENDCHAR
STARTCHAR 012A
ENCODING 298
SWIDTH 288 0
DWIDTH 4 0
BBX 4 13 0 0
BITMAP
F0
00
60
60
60
60
60
60
60
60
60
60
60
ENDCHAR
STARTCHAR 012B
ENCODING 299
SWIDTH 288 0
DWIDTH 4 0
BBX 4 10 0 0
BITMAP
F0
00
60
60
60
60
60
60
60
60
ENDCHAR
STARTCHAR 012C
ENCODING 300
SWIDTH 288 0
DWIDTH 4 0
BBX 4 14 0 0
BITMAP
90
90
60
60
60
60
60
60
60
60
60
60
60
60
ENDCHAR
STARTCHAR 012D
ENCODING 301
SWIDTH 288 0
DWIDTH 4 0
BBX 4 11 0 0
BITMAP
90
90
60
60
60
60
60
60
60
60
60
ENDCHAR
STARTCHAR 012E
ENCODING 302
SWIDTH 288 0
DWIDTH 4 0
BBX 2 13 1 -2
BITMAP
C0
C0
C0
C0
C0
C0
C0
C0
C0
C0
C0
80
C0
ENDCHAR
STARTCHAR 012F
ENCODING 303
SWIDTH 288 0
DWIDTH 4 0
BBX 2 10 1 -2
BITMAP
C0
C0
C0
C0
C0
C0
C0
C0
80
C0
ENDCHAR
STARTCHAR 0130
ENCODING 304
SWIDTH 288 0
DWIDTH 4 0
BBX 2 14 1 0
BITMAP
C0
C0
00
C0
C0
C0
C0
C0
C0
C0
C0
C0
C0
C0
ENDCHAR
STARTCHAR 0131
ENCODING 305
SWIDTH 288 0
DWIDTH 4 0
BBX 2 8 1 0
BITMAP
C0
C0
C0
C0
C0
C0
C0
C0
ENDCHAR
STARTCHAR 0132
ENCODING 306
SWIDTH 648 0
DWIDTH 9 0
BBX 7 11 1 0
BITMAP
C2
C2
C2
C2
C2
C2
C2
DE
DE
DE
DE
ENDCHAR
STARTCHAR 0133
ENCODING 307
SWIDTH 648 0
DWIDTH 9 0
BBX 7 8 1 0
BITMAP
C2
C2
C2
C2
C2
DE
DE
DE
ENDCHAR
STARTCHAR 0134
ENCODING 308
SWIDTH 360 0
DWIDTH 5 0
BBX 5 14 0 0
BITMAP
60
50
D8
10
10
10
10
10
10
10
F0
F0
F0
F0
ENDCHAR
STARTCHAR 0135
ENCODING 309
SWIDTH 360 0
DWIDTH 5 0
BBX 5 11 0 0
BITMAP
20
50
D8
10
10
10
10
10
F0
F0
F0
ENDCHAR
STARTCHAR 0136
ENCODING 310
SWIDTH 504 0
DWIDTH 7 0
BBX 5 14 1 -3
BITMAP
C8
C8
D0
D0
E0
F8
C8
C8
C8
C8
C8
30
30
10
ENDCHAR
STARTCHAR 0137
ENCODING 311
SWIDTH 504 0
DWIDTH 7 0
BBX 5 11 1 -3
BITMAP
C8
C8
D0
F8
C8
C8
C8
C8
30
30
10
ENDCHAR
STARTCHAR 0139
ENCODING 313
SWIDTH 360 0
DWIDTH 5 0
BBX 4 14 1 0
BITMAP
60
40
C0
80
80
80
80
80
80
80
F0
F0
F0
F0
ENDCHAR
STARTCHAR 013A
ENCODING 314
SWIDTH 360 0
DWIDTH 5 0
BBX 4 11 1 0
BITMAP
60
40
80
80
80
80
80
80
F0
F0
F0
ENDCHAR
STARTCHAR 013B
ENCODING 315
SWIDTH 360 0
DWIDTH 5 0
BBX 4 14 1 -3
BITMAP
80
80
80
80
80
80
80
F0
F0
F0
F0
60
60
20
ENDCHAR
STARTCHAR 013C
ENCODING 316
SWIDTH 360 0
DWIDTH 5 0
BBX 4 11 1 -3
BITMAP
80
80
80
80
80
F0
F0
F0
60
60
20
ENDCHAR
STARTCHAR 013D
ENCODING 317
SWIDTH 360 0
DWIDTH 5 0
BBX 4 11 1 0
BITMAP
E0
E0
A0
80
80
80
80
F0
F0
F0
F0
ENDCHAR
STARTCHAR 013E
ENCODING 318
SWIDTH 360 0
DWIDTH 5 0
BBX 4 8 1 0
BITMAP
E0
E0
A0
80
80
F0
F0
F0
ENDCHAR
STARTCHAR 013F
ENCODING 319
SWIDTH 360 0
DWIDTH 5 0
BBX 4 11 1 0
BITMAP
80
80
80
80
E0
E0
80
F0
F0
F0
F0
ENDCHAR
STARTCHAR 0140
ENCODING 320
SWIDTH 360 0
DWIDTH 5 0
BBX 4 8 1 0
BITMAP
80
80
E0
E0
80
F0
F0
F0
ENDCHAR
STARTCHAR 0141
ENCODING 321
SWIDTH 360 0
DWIDTH 5 0
BBX 4 11 1 0
BITMAP
80
80
E0
80
80
80
80
F0
F0
F0
F0
ENDCHAR
STARTCHAR 0142
ENCODING 322
SWIDTH 360 0
DWIDTH 5 0
BBX 4 8 1 0
BITMAP
80
80
E0
80
80
F0
F0
F0
ENDCHAR
STARTCHAR 0143
ENCODING 323
SWIDTH 504 0
DWIDTH 7 0
BBX 5 14 1 0
BITMAP
10
30
20
F8
C8
C8
C8
C8
C8
C8
C8
C8
C8
C8
ENDCHAR
STARTCHAR 0144
ENCODING 324
SWIDTH 504 0
DWIDTH 7 0
BBX 5 11 1 0
BITMAP
10
30
20
F8
C8
C8
C8
C8
C8
C8
C8
ENDCHAR
STARTCHAR 0145
ENCODING 325
SWIDTH 504 0
DWIDTH 7 0
BBX 5 14 1 -3
BITMAP
F8
C8
C8
C8
C8
C8
C8
C8
C8
C8
C8
30
30
10
ENDCHAR
STARTCHAR 0146
ENCODING 326
SWIDTH 504 0
DWIDTH 7 0
BBX 5 11 1 -3
BITMAP
F8
C8
C8
C8
C8
C8
C8
C8
30
30
10
ENDCHAR
STARTCHAR 0147
ENCODING 327
SWIDTH 504 0
DWIDTH 7 0
BBX 5 14 1 0
BITMAP
D8
50
60
F8
C8
C8
C8
C8
C8
C8
C8
C8
C8
C8
ENDCHAR
STARTCHAR 0148
ENCODING 328
SWIDTH 504 0
DWIDTH 7 0
BBX 5 11 1 0
BITMAP
D8
50
60
F8
C8
C8
C8
C8
C8
C8
C8
ENDCHAR
STARTCHAR 014A
ENCODING 330
SWIDTH 504 0
DWIDTH 7 0
BBX 5 14 1 -3
BITMAP
F8
C8
C8
C8
C8
C8
C8
C8
C8
C8
C8
08
38
38
ENDCHAR
STARTCHAR 014B
ENCODING 331
SWIDTH 504 0
DWIDTH 7 0
BBX 5 11 1 -3
BITMAP
F8
C8
C8
C8
C8
C8
C8
C8
08
38
38
ENDCHAR
STARTCHAR 014C
ENCODING 332
SWIDTH 504 0
DWIDTH 7 0
BBX 5 13 1 0
BITMAP
F0
00
F8
C8
C8
C8
C8
C8
C8
C8
C8
C8
F8
ENDCHAR
STARTCHAR 014D
ENCODING 333
SWIDTH 504 0
DWIDTH 7 0
BBX 5 10 1 0
BITMAP
F0
00
F8
C8
C8
C8
C8
C8
C8
F8
ENDCHAR
STARTCHAR 014E
ENCODING 334
SWIDTH 504 0
DWIDTH 7 0
BBX 5 14 1 0
BITMAP
D0
50
20
F8
C8
C8
C8
C8
C8
C8
C8
C8
C8
F8
ENDCHAR
STARTCHAR 014F
ENCODING 335
SWIDTH 504 0
DWIDTH 7 0
BBX 5 11 1 0
BITMAP
D0
50
20
F8
C8
C8
C8
C8
C8
C8
F8
ENDCHAR
STARTCHAR 0150
ENCODING 336
SWIDTH 504 0
DWIDTH 7 0
BBX 5 14 1 0
BITMAP
78
58
D0
F8
C8
C8
C8
C8
C8
C8
C8
C8
C8
F8
ENDCHAR
STARTCHAR 0151
ENCODING 337
SWIDTH 504 0
DWIDTH 7 0
BBX 5 11 1 0
BITMAP
78
58
D0
F8
C8
C8
C8
C8
C8
C8
F8
ENDCHAR
STARTCHAR 0152
ENCODING 338
SWIDTH 648 0
DWIDTH 9 0
BBX 8 11 1 0
BITMAP
FF
C8
C8
CF
C8
C8
C8
CF
CF
CF
FF
ENDCHAR
STARTCHAR 0153
ENCODING 339
SWIDTH 648 0
DWIDTH 9 0
BBX 8 8 1 0
BITMAP
FF
C8
CF
C8
C8
CF
CF
FF
ENDCHAR
STARTCHAR 0154
ENCODING 340
SWIDTH 504 0
DWIDTH 7 0
BBX 5 14 1 0
BITMAP
10
30
20
F8
C8
C8
C8
C8
F8
C8
C8
C8
C8
C8
ENDCHAR
STARTCHAR 0155
ENCODING 341
SWIDTH 504 0
DWIDTH 7 0
BBX 5 11 1 0
BITMAP
10
30
20
F8
C8
C8
C8
F8
C8
C8
C8
ENDCHAR
STARTCHAR 0156
ENCODING 342
SWIDTH 504 0
DWIDTH 7 0
BBX 5 14 1 -3
BITMAP
F8
C8
C8
C8
C8
F8
C8
C8
C8
C8
C8
30
30
10
ENDCHAR
STARTCHAR 0157
ENCODING 343
SWIDTH 504 0
DWIDTH 7 0
BBX 5 11 1 -3
BITMAP
F8
C8
C8
C8
F8
C8
C8
C8
30
30
10
ENDCHAR
STARTCHAR 0158
ENCODING 344
SWIDTH 504 0
DWIDTH 7 0
BBX 5 14 1 0
BITMAP
D8
50
60
F8
C8
C8
C8
C8
F8
C8
C8
C8
C8
C8
ENDCHAR
STARTCHAR 0159
ENCODING 345
SWIDTH 504 0
DWIDTH 7 0
BBX 5 11 1 0
BITMAP
D8
50
60
F8
C8
C8
C8
F8
C8
C8
C8
ENDCHAR
STARTCHAR 015A
ENCODING 346
SWIDTH 504 0
DWIDTH 7 0
BBX 5 14 1 0
BITMAP
10
30
20
F8
88
88
80
80
F8
18
18
98
98
F8
ENDCHAR
STARTCHAR 015B
ENCODING 347
SWIDTH 504 0
DWIDTH 7 0
BBX 5 11 1 0
BITMAP
10
30
20
F8
88
80
F8
18
18
98
F8
ENDCHAR
STARTCHAR 015C
ENCODING 348
SWIDTH 504 0
DWIDTH 7 0
BBX 5 14 1 0
BITMAP
60
50
D8
F8
88
88
80
80
F8
18
18
98
98
F8
ENDCHAR
STARTCHAR 015D
ENCODING 349
SWIDTH 504 0
DWIDTH 7 0
BBX 5 11 1 0
BITMAP
60
50
D8
F8
88
80
F8
18
18
98
F8
ENDCHAR
STARTCHAR 015E
ENCODING 350
SWIDTH 504 0
DWIDTH 7 0
BBX 5 14 1 -3
BITMAP
F8
88
88
80
80
F8
18
18
98
98
F8
60
60
20
ENDCHAR
STARTCHAR 015F
ENCODING 351
SWIDTH 504 0
DWIDTH 7 0
BBX 5 11 1 -3
BITMAP
F8
88
80
F8
18
18
98
F8
60
60
20
ENDCHAR
STARTCHAR 0160
ENCODING 352
SWIDTH 504 0
DWIDTH 7 0
BBX 5 14 1 0
BITMAP
D8
50
60
F8
88
88
80
80
F8
18
18
98
98
F8
ENDCHAR
STARTCHAR 0161
ENCODING 353
SWIDTH 504 0
DWIDTH 7 0
BBX 5 11 1 0
BITMAP
D8
50
60
F8
88
80
F8
18
18
98
F8
ENDCHAR
STARTCHAR 0162
ENCODING 354
SWIDTH 432 0
DWIDTH 6 0
BBX 6 14 0 -3
BITMAP
FC
FC
FC
FC
10
10
10
10
10
10
10
30
30
10
ENDCHAR
STARTCHAR 0163
ENCODING 355
SWIDTH 432 0
DWIDTH 6 0
BBX 6 11 0 -3
BITMAP
FC
FC
FC
10
10
10
10
10
30
30
10
ENDCHAR
STARTCHAR 0164
ENCODING 356
SWIDTH 432 0
DWIDTH 6 0
BBX 6 14 0 0
BITMAP
48
78
30
FC
FC
FC
FC
10
10
10
10
10
10
10
ENDCHAR
STARTCHAR 0165
ENCODING 357
SWIDTH 432 0
DWIDTH 6 0
BBX 6 11 0 0
BITMAP
48
78
30
FC
FC
FC
10
10
10
10
10
ENDCHAR
STARTCHAR 0166
ENCODING 358
SWIDTH 432 0
DWIDTH 6 0
BBX 6 11 0 0
BITMAP
FC
FC
FC
FC
10
78
10
10
10
10
10
ENDCHAR
STARTCHAR 0167
ENCODING 359
SWIDTH 432 0
DWIDTH 6 0
BBX 6 8 0 0
BITMAP
FC
FC
FC
10
78
10
10
10
ENDCHAR
STARTCHAR 0168
ENCODING 360
SWIDTH 504 0
DWIDTH 7 0
BBX 5 13 1 0
BITMAP
68
18
C8
C8
C8
C8
C8
C8
C8
F8
F8
F8
F8
ENDCHAR
STARTCHAR 0169
ENCODING 361
SWIDTH 504 0
DWIDTH 7 0
BBX 5 10 1 0
BITMAP
68
10
C8
C8
C8
C8
C8
F8
F8
F8
ENDCHAR
STARTCHAR 016A
ENCODING 362
SWIDTH 504 0
DWIDTH 7 0
BBX 5 13 1 0
BITMAP
78
00
C8
C8
C8
C8
C8
C8
C8
F8
F8
F8
F8
ENDCHAR
STARTCHAR 016B
ENCODING 363
SWIDTH 504 0
DWIDTH 7 0
BBX 5 10 1 0
BITMAP
78
00
C8
C8
C8
C8
C8
F8
F8
F8
ENDCHAR
STARTCHAR 016C
ENCODING 364
SWIDTH 504 0
DWIDTH 7 0
BBX 5 14 1 0
BITMAP
48
48
30
C8
C8
C8
C8
C8
C8
C8
F8
F8
F8
F8
ENDCHAR
STARTCHAR 016D
ENCODING 365
SWIDTH 504 0
DWIDTH 7 0
BBX 5 11 1 0
BITMAP
48
48
30
C8
C8
C8
C8
C8
F8
F8
F8
ENDCHAR
STARTCHAR 016E
ENCODING 366
SWIDTH 504 0
DWIDTH 7 0
BBX 5 14 1 0
BITMAP
70
50
70
C8
C8
C8
C8
C8
C8
C8
F8
F8
F8
F8
ENDCHAR
STARTCHAR 016F
ENCODING 367
SWIDTH 504 0
DWIDTH 7 0
BBX 5 11 1 0
BITMAP
70
50
30
C8
C8
C8
C8
C8
F8
F8
F8
ENDCHAR
STARTCHAR 0170
ENCODING 368
SWIDTH 504 0
DWIDTH 7 0
BBX 5 14 1 0
BITMAP
68
58
50
C8
C8
C8
C8
C8
C8
C8
F8
F8
F8
F8
ENDCHAR
STARTCHAR 0171
ENCODING 369
SWIDTH 504 0
DWIDTH 7 0
BBX 5 11 1 0
BITMAP
68
78
50
C8
C8
C8
C8
C8
F8
F8
F8
ENDCHAR
STARTCHAR 0172
ENCODING 370
SWIDTH 504 0
DWIDTH 7 0
BBX 5 13 1 -2
BITMAP
C8
C8
C8
C8
C8
C8
C8
F8
F8
F8
F8
20
30
ENDCHAR
STARTCHAR 0173
ENCODING 371
SWIDTH 504 0
DWIDTH 7 0
BBX 5 10 1 -2
BITMAP
C8
C8
C8
C8
C8
F8
F8
F8
30
38
ENDCHAR
STARTCHAR 0174
ENCODING 372
SWIDTH 648 0
DWIDTH 9 0
BBX 7 14 1 0
BITMAP
30
28
48
D6
D6
D6
D6
D6
D6
D6
D6
D6
D6
FE
ENDCHAR
STARTCHAR 0175
ENCODING 373
SWIDTH 648 0
DWIDTH 9 0
BBX 7 11 1 0
BITMAP
30
28
48
D6
D6
D6
D6
D6
D6
D6
FE
ENDCHAR
STARTCHAR 0176
ENCODING 374
SWIDTH 504 0
DWIDTH 7 0
BBX 6 14 0 0
BITMAP
30
38
48
8C
8C
8C
8C
8C
8C
8C
FC
10
10
10
ENDCHAR
STARTCHAR 0177
ENCODING 375
SWIDTH 504 0
DWIDTH 7 0
BBX 6 11 0 0
BITMAP
30
28
48
8C
8C
8C
8C
8C
FC
10
10
ENDCHAR
STARTCHAR 0178
ENCODING 376
SWIDTH 504 0
DWIDTH 7 0
BBX 6 14 0 0
BITMAP
68
68
00
8C
8C
8C
8C
8C
8C
8C
FC
10
10
10
ENDCHAR
STARTCHAR 0179
ENCODING 377
SWIDTH 504 0
DWIDTH 7 0
BBX 7 14 0 0
BITMAP
08
18
10
FE
0C
0C
18
18
38
30
30
70
60
FE
ENDCHAR
STARTCHAR 017A
ENCODING 378
SWIDTH 504 0
DWIDTH 7 0
BBX 7 11 0 0
BITMAP
0C
08
10
7E
0C
1C
18
38
30
70
FE
ENDCHAR
STARTCHAR 017B
ENCODING 379
SWIDTH 504 0
DWIDTH 7 0
BBX 7 14 0 0
BITMAP
10
18
00
FE
0C
0C
18
18
38
30
30
70
60
FE
ENDCHAR
STARTCHAR 017C
ENCODING 380
SWIDTH 504 0
DWIDTH 7 0
BBX 7 11 0 0
BITMAP
18
18
00
7E
0C
1C
18
38
30
70
FE
ENDCHAR
STARTCHAR 017D
ENCODING 381
SWIDTH 504 0
DWIDTH 7 0
BBX 7 14 0 0
BITMAP
6C
28
18
FE
0C
0C
18
18
38
30
30
70
60
FE
ENDCHAR
STARTCHAR 017E
ENCODING 382
SWIDTH 504 0
DWIDTH 7 0
BBX 7 11 0 0
BITMAP
24
38
18
7E
0C
1C
18
38
30
70
FE
ENDCHAR
STARTCHAR 0192
ENCODING 402
SWIDTH 432 0
DWIDTH 6 0
BBX 6 11 0 0
BITMAP
1C
18
10
3C
30
30
30
20
20
60
E0
ENDCHAR
STARTCHAR 0218
ENCODING 536
SWIDTH 504 0
DWIDTH 7 0
BBX 5 14 1 -3
BITMAP
F8
88
88
80
80
F8
18
18
98
98
F8
60
60
20
ENDCHAR
STARTCHAR 0219
ENCODING 537
SWIDTH 504 0
DWIDTH 7 0
BBX 5 11 1 -3
BITMAP
F8
88
80
F8
18
18
98
F8
60
60
20
ENDCHAR
STARTCHAR 021A
ENCODING 538
SWIDTH 432 0
DWIDTH 6 0
BBX 6 14 0 -3
BITMAP
FC
FC
FC
FC
10
10
10
10
10
10
10
30
30
10
ENDCHAR
STARTCHAR 021B
ENCODING 539
SWIDTH 432 0
DWIDTH 6 0
BBX 6 11 0 -3
BITMAP
FC
FC
FC
10
10
10
10
10
30
30
10
ENDCHAR
STARTCHAR 02C6
ENCODING 710
SWIDTH 432 0
DWIDTH 6 0
BBX 4 3 1 8
BITMAP
60
F0
90
ENDCHAR
STARTCHAR 02C7
ENCODING 711
SWIDTH 432 0
DWIDTH 6 0
BBX 4 3 1 8
BITMAP
90
F0
60
ENDCHAR
STARTCHAR 02D8
ENCODING 728
SWIDTH 360 0
DWIDTH 5 0
BBX 4 3 1 8
BITMAP
B0
A0
40
ENDCHAR
STARTCHAR 02D9
ENCODING 729
SWIDTH 216 0
DWIDTH 3 0
BBX 1 2 1 8
BITMAP
80
80
ENDCHAR
STARTCHAR 02DA
ENCODING 730
SWIDTH 288 0
DWIDTH 4 0
BBX 3 3 1 8
BITMAP
C0
A0
E0
ENDCHAR
STARTCHAR 02DB
ENCODING 731
SWIDTH 288 0
DWIDTH 4 0
BBX 2 2 1 -2
BITMAP
80
C0
ENDCHAR
STARTCHAR 02DC
ENCODING 732
SWIDTH 360 0
DWIDTH 5 0
BBX 4 2 1 8
BITMAP
D0
70
ENDCHAR
STARTCHAR 02DD
ENCODING 733
SWIDTH 432 0
DWIDTH 6 0
BBX 4 3 1 8
BITMAP
D0
F0
A0
ENDCHAR
STARTCHAR 0394
ENCODING 916
SWIDTH 504 0
DWIDTH 7 0
BBX 6 11 0 0
BITMAP
38
38
38
58
58
5C
5C
4C
8C
8C
FC
ENDCHAR
STARTCHAR 03A9
ENCODING 937
SWIDTH 720 0
DWIDTH 10 0
BBX 8 11 1 0
BITMAP
FE
E3
E1
E1
E1
E1
E1
E2
72
F7
F7
ENDCHAR
STARTCHAR 03BC
ENCODING 956
SWIDTH 504 0
DWIDTH 7 0
BBX 5 10 1 -2
BITMAP
C8
C8
C8
C8
C8
F8
F8
F8
C0
C0
ENDCHAR
STARTCHAR 03C0
ENCODING 960
SWIDTH 576 0
DWIDTH 8 0
BBX 7 8 1 0
BITMAP
F8
B8
98
98
98
98
98
9E
ENDCHAR
STARTCHAR 1E80
ENCODING 7808
SWIDTH 648 0
DWIDTH 9 0
BBX 7 14 1 0
BITMAP
20
30
10
D6
D6
D6
D6
D6
D6
D6
D6
D6
D6
FE
ENDCHAR
STARTCHAR 1E81
ENCODING 7809
SWIDTH 648 0
DWIDTH 9 0
BBX 7 11 1 0
BITMAP
20
30
10
D6
D6
D6
D6
D6
D6
D6
FE
ENDCHAR
STARTCHAR 1E82
ENCODING 7810
SWIDTH 648 0
DWIDTH 9 0
BBX 7 14 1 0
BITMAP
18
10
10
D6
D6
D6
D6
D6
D6
D6
D6
D6
D6
FE
ENDCHAR
STARTCHAR 1E83
ENCODING 7811
SWIDTH 648 0
DWIDTH 9 0
BBX 7 11 1 0
BITMAP
18
18
10
D6
D6
D6
D6
D6
D6
D6
FE
ENDCHAR
STARTCHAR 1E84
ENCODING 7812
SWIDTH 648 0
DWIDTH 9 0
BBX 7 14 1 0
BITMAP
68
68
00
D6
D6
D6
D6
D6
D6
D6
D6
D6
D6
FE
ENDCHAR
STARTCHAR 1E85
ENCODING 7813
SWIDTH 648 0
DWIDTH 9 0
BBX 7 11 1 0
BITMAP
68
68
00
D6
D6
D6
D6
D6
D6
D6
FE
ENDCHAR
STARTCHAR 1EF2
ENCODING 7922
SWIDTH 504 0
DWIDTH 7 0
BBX 6 14 0 0
BITMAP
60
30
10
8C
8C
8C
8C
8C
8C
8C
FC
10
10
10
ENDCHAR
STARTCHAR 1EF3
ENCODING 7923
SWIDTH 504 0
DWIDTH 7 0
BBX 6 11 0 0
BITMAP
20
30
10
8C
8C
8C
8C
8C
FC
10
10
ENDCHAR
STARTCHAR 2013
ENCODING 8211
SWIDTH 432 0
DWIDTH 6 0
BBX 6 1 0 5
BITMAP
FC
ENDCHAR
STARTCHAR 2014
ENCODING 8212
SWIDTH 720 0
DWIDTH 10 0
BBX 9 1 0 5
BITMAP
FF80
ENDCHAR
STARTCHAR 2018
ENCODING 8216
SWIDTH 288 0
DWIDTH 4 0
BBX 3 4 1 7
BITMAP
80
80
E0
E0
ENDCHAR
STARTCHAR 2019
ENCODING 8217
SWIDTH 288 0
DWIDTH 4 0
BBX 4 5 0 7
BITMAP
70
F0
30
30
30
ENDCHAR
STARTCHAR 201A
ENCODING 8218
SWIDTH 288 0
DWIDTH 4 0
BBX 4 4 0 -1
BITMAP
F0
70
30
30
ENDCHAR
STARTCHAR 201C
ENCODING 8220
SWIDTH 576 0
DWIDTH 8 0
BBX 7 4 1 7
BITMAP
88
88
EE
EE
ENDCHAR
STARTCHAR 201D
ENCODING 8221
SWIDTH 576 0
DWIDTH 8 0
BBX 8 5 0 7
BITMAP
77
F7
33
33
33
ENDCHAR
STARTCHAR 201E
ENCODING 8222
SWIDTH 576 0
DWIDTH 8 0
BBX 8 4 0 -1
BITMAP
F7
77
33
33
ENDCHAR
STARTCHAR 2020
ENCODING 8224
SWIDTH 432 0
DWIDTH 6 0
BBX 5 11 1 0
BITMAP
20
20
F8
20
20
20
20
20
20
20
20
ENDCHAR
STARTCHAR 2021
ENCODING 8225
SWIDTH 432 0
DWIDTH 6 0
BBX 5 11 1 0
BITMAP
20
20
F8
20
20
20
20
20
F8
20
20
ENDCHAR
STARTCHAR 2022
ENCODING 8226
SWIDTH 360 0
DWIDTH 5 0
BBX 3 4 1 4
BITMAP
E0
E0
E0
E0
ENDCHAR
STARTCHAR 2026
ENCODING 8230
SWIDTH 1224 0
DWIDTH 17 0
BBX 15 3 1 0
BITMAP
E38E
E38E
E38E
ENDCHAR
STARTCHAR 2030
ENCODING 8240
SWIDTH 936 0
DWIDTH 13 0
BBX 12 11 1 0
BITMAP
E200
E200
A400
A800
E800
F7F0
17F0
2990
2990
47F0
87F0
ENDCHAR
STARTCHAR 2039
ENCODING 8249
SWIDTH 288 0
DWIDTH 4 0
BBX 3 4 1 3
BITMAP
60
C0
C0
60
ENDCHAR
STARTCHAR 203A
ENCODING 8250
SWIDTH 288 0
DWIDTH 4 0
BBX 3 4 0 3
BITMAP
C0
60
60
C0
ENDCHAR
STARTCHAR 2044
ENCODING 8260
SWIDTH 216 0
DWIDTH 3 0
BBX 7 11 -2 0
BITMAP
02
04
08
08
10
10
20
20
40
80
80
ENDCHAR
STARTCHAR 2070
ENCODING 8304
SWIDTH 288 0
DWIDTH 4 0
BBX 4 6 0 5
BITMAP
F0
F0
90
90
F0
F0
ENDCHAR
STARTCHAR 2074
ENCODING 8308
SWIDTH 288 0
DWIDTH 4 0
BBX 3 6 0 5
BITMAP
80
A0
E0
E0
20
20
ENDCHAR
STARTCHAR 2075
ENCODING 8309
SWIDTH 288 0
DWIDTH 4 0
BBX 4 6 0 5
BITMAP
F0
D0
C0
F0
90
F0
ENDCHAR
STARTCHAR 2076
ENCODING 8310
SWIDTH 288 0
DWIDTH 4 0
BBX 4 6 0 5
BITMAP
F0
D0
F0
D0
D0
F0
ENDCHAR
STARTCHAR 2077
ENCODING 8311
SWIDTH 288 0
DWIDTH 4 0
BBX 3 6 0 5
BITMAP
E0
E0
20
40
40
40
ENDCHAR
STARTCHAR 2078
ENCODING 8312
SWIDTH 288 0
DWIDTH 4 0
BBX 4 6 0 5
BITMAP
F0
90
F0
90
F0
F0
ENDCHAR
STARTCHAR 2079
ENCODING 8313
SWIDTH 288 0
DWIDTH 4 0
BBX 4 6 0 5
BITMAP
F0
F0
90
70
90
F0
ENDCHAR
STARTCHAR 2080
ENCODING 8320
SWIDTH 288 0
DWIDTH 4 0
BBX 4 6 0 0
BITMAP
F0
F0
90
90
F0
F0
ENDCHAR
STARTCHAR 2081
ENCODING 8321
SWIDTH 144 0
DWIDTH 2 0
BBX 1 6 0 0
BITMAP
80
80
80
80
80
80
ENDCHAR
STARTCHAR 2082
ENCODING 8322
SWIDTH 288 0
DWIDTH 4 0
BBX 4 6 0 0
BITMAP
70
B0
30
F0
90
F0
ENDCHAR
STARTCHAR 2083
ENCODING 8323
SWIDTH 288 0
DWIDTH 4 0
BBX 3 6 0 0
BITMAP
E0
E0
20
E0
20
E0
ENDCHAR
STARTCHAR 2084
ENCODING 8324
SWIDTH 288 0
DWIDTH 4 0
BBX 3 6 0 0
BITMAP
80
80
A0
E0
E0
20
ENDCHAR
STARTCHAR 2085
ENCODING 8325
SWIDTH 288 0
DWIDTH 4 0
BBX 4 6 0 0
BITMAP
F0
D0
C0
F0
90
F0
ENDCHAR
STARTCHAR 2086
ENCODING 8326
SWIDTH 288 0
DWIDTH 4 0
BBX 4 6 0 0
BITMAP
70
D0
C0
F0
D0
F0
ENDCHAR
STARTCHAR 2087
ENCODING 8327
SWIDTH 288 0
DWIDTH 4 0
BBX 3 6 0 0
BITMAP
E0
E0
20
40
40
40
ENDCHAR
STARTCHAR 2088
ENCODING 8328
SWIDTH 288 0
DWIDTH 4 0
BBX 4 6 0 0
BITMAP
70
90
F0
90
F0
F0
ENDCHAR
STARTCHAR 2089
ENCODING 8329
SWIDTH 288 0
DWIDTH 4 0
BBX 4 6 0 0
BITMAP
F0
F0
90
70
90
F0
ENDCHAR
STARTCHAR 20AC
ENCODING 8364
SWIDTH 504 0
DWIDTH 7 0
BBX 7 11 0 0
BITMAP
7E
72
70
FC
70
70
FC
70
72
72
7E
ENDCHAR
STARTCHAR 20B9
ENCODING 8377
SWIDTH 432 0
DWIDTH 6 0
BBX 6 11 0 0
BITMAP
FC
18
18
FC
18
30
08
08
08
08
08
ENDCHAR
STARTCHAR 2117
ENCODING 8471
SWIDTH 720 0
DWIDTH 10 0
BBX 8 11 1 0
BITMAP
7E
81
81
BD
BD
BD
B9
B1
81
81
7E
ENDCHAR
STARTCHAR 2122
ENCODING 8482
SWIDTH 720 0
DWIDTH 10 0
BBX 10 6 0 5
BITMAP
FCC0
2FC0
2FC0
2FC0
2FC0
2CC0
ENDCHAR
STARTCHAR 2153
ENCODING 8531
SWIDTH 720 0
DWIDTH 10 0
BBX 8 11 1 0
BITMAP
82
84
88
88
90
97
27
21
47
81
87
ENDCHAR
STARTCHAR 2154
ENCODING 8532
SWIDTH 792 0
DWIDTH 11 0
BBX 9 11 1 0
BITMAP
E100
E200
6200
E400
A400
EB80
1380
1080
2380
2080
4380
ENDCHAR
STARTCHAR 215B
ENCODING 8539
SWIDTH 720 0
DWIDTH 10 0
BBX 8 11 1 0
BITMAP
82
84
88
88
90
97
25
27
45
87
87
ENDCHAR
STARTCHAR 215C
ENCODING 8540
SWIDTH 792 0
DWIDTH 11 0
BBX 9 11 1 0
BITMAP
E100
E200
2200
E400
2800
EB80
1280
1380
2280
2380
4380
ENDCHAR
STARTCHAR 215D
ENCODING 8541
SWIDTH 792 0
DWIDTH 11 0
BBX 9 11 1 0
BITMAP
E100
A200
8200
E400
2400
EB80
1280
1380
2280
2380
4380
ENDCHAR
STARTCHAR 215E
ENCODING 8542
SWIDTH 720 0
DWIDTH 10 0
BBX 8 11 1 0
BITMAP
E2
C4
44
48
90
97
25
27
45
47
87
ENDCHAR
STARTCHAR 2202
ENCODING 8706
SWIDTH 504 0
DWIDTH 7 0
BBX 7 11 0 0
BITMAP
3C
06
02
02
7E
66
E6
E6
E4
7C
78
ENDCHAR
STARTCHAR 220F
ENCODING 8719
SWIDTH 576 0
DWIDTH 8 0
BBX 7 12 1 -1
BITMAP
FC
86
86
86
86
86
86
86
86
86
86
86
ENDCHAR
STARTCHAR 2211
ENCODING 8721
SWIDTH 504 0
DWIDTH 7 0
BBX 6 13 0 -2
BITMAP
FC
40
60
20
30
10
18
10
30
20
60
40
FC
ENDCHAR
STARTCHAR 2212
ENCODING 8722
SWIDTH 504 0
DWIDTH 7 0
BBX 5 1 1 5
BITMAP
F8
ENDCHAR
STARTCHAR 221A
ENCODING 8730
SWIDTH 576 0
DWIDTH 8 0
BBX 7 11 0 0
BITMAP
02
02
06
06
04
C4
EC
28
28
38
18
ENDCHAR
STARTCHAR 221E
ENCODING 8734
SWIDTH 648 0
DWIDTH 9 0
BBX 8 4 0 3
BITMAP
FF
C9
C9
FF
ENDCHAR
STARTCHAR 222B
ENCODING 8747
SWIDTH 360 0
DWIDTH 5 0
BBX 4 13 0 -2
BITMAP
30
20
20
20
20
20
20
20
20
20
20
60
E0
ENDCHAR
STARTCHAR 2248
ENCODING 8776
SWIDTH 504 0
DWIDTH 7 0
BBX 5 5 1 3
BITMAP
F8
80
00
F8
80
ENDCHAR
STARTCHAR 2260
ENCODING 8800
SWIDTH 504 0
DWIDTH 7 0
BBX 6 8 0 1
BITMAP
04
04
7C
10
10
7C
40
C0
ENDCHAR
STARTCHAR 2264
ENCODING 8804
SWIDTH 504 0
DWIDTH 7 0
BBX 5 8 1 0
BITMAP
08
30
C0
C0
30
08
00
F8
ENDCHAR
STARTCHAR 2265
ENCODING 8805
SWIDTH 504 0
DWIDTH 7 0
BBX 5 8 1 0
BITMAP
80
60
18
18
60
80
00
F8
ENDCHAR
STARTCHAR 25CA
ENCODING 9674
SWIDTH 504 0
DWIDTH 7 0
BBX 7 11 0 0
BITMAP
10
38
28
44
44
82
44
44
28
38
10
ENDCHAR
STARTCHAR FB01
ENCODING 64257
SWIDTH 720 0
DWIDTH 10 0
BBX 9 8 1 0
BITMAP
FB80
FB80
FB80
C380
C380
FB80
C380
C380
ENDCHAR
STARTCHAR FB02
ENCODING 64258
SWIDTH 864 0
DWIDTH 12 0
BBX 10 8 1 0
BITMAP
FA00
FA00
FA00
C200
C200
FBC0
C3C0
C3C0
ENDCHAR
ENDFONT
